<svg height="512pt" viewBox="0 0 512 512" width="512pt" xmlns="http://www.w3.org/2000/svg"><path d="m345 241.964844h-75v-75c0-41.355469-33.644531-75-75-75-8.285156 0-15 6.714844-15 15 0 53.984375-23.648438 104.917968-64.925781 139.777344l-22.125 18.839843c-4.898438 4.117188-11.0625 6.382813-17.347657 6.382813h-60.601562c-8.285156 0-15 6.714844-15 15v180c0 8.285156 6.714844 15 15 15h30.902344c27.253906 0 54.109375 5.011718 79.894531 14.933594 26.449219 9.996093 54.070313 15.066406 82.101563 15.066406h77.101562c24.8125 0 45-20.1875 45-45 0-5.851563-1.121094-11.445313-3.164062-16.578125 19.089843-5.210938 33.164062-22.703125 33.164062-43.421875 0-5.851563-1.121094-11.445313-3.164062-16.578125 19.089843-5.210938 33.164062-22.703125 33.164062-43.421875 0-11.511719-4.347656-22.03125-11.484375-30 7.136719-7.964844 11.484375-18.484375 11.484375-30 0-24.8125-20.1875-45-45-45zm0 60h-60c-8.285156 0-15 6.714844-15 15s6.714844 15 15 15h60c8.269531 0 15 6.730468 15 15 0 8.273437-6.730469 15-15 15-6.359375 0-53.640625 0-60 0-8.285156 0-15 6.714844-15 15s6.714844 15 15 15h30c8.269531 0 15 6.730468 15 15 0 8.273437-6.730469 15-15 15h-30c-8.285156 0-15 6.714844-15 15s6.714844 15 15 15c8.269531 0 15 6.730468 15 15 0 8.273437-6.730469 15-15 15h-77.101562c-24.394532 0-48.449219-4.417969-71.414063-13.097656-29.152344-11.214844-59.628906-16.902344-90.582031-16.902344h-15.902344v-150h45.601562c13.335938 0 26.347657-4.761719 36.722657-13.476563l22.15625-18.863281c43.554687-36.789062 70.253906-89.019531 74.820312-145.332031 17.824219 5.988281 30.699219 22.855469 30.699219 42.671875v90c0 8.285156 6.714844 15 15 15h90c8.269531 0 15 6.730468 15 15 0 8.273437-6.730469 15-15 15zm0 0"/><path d="m332.511719 153.070312c22.546875 0 48.882812-11.792968 70.914062-33.824218 35.6875-35.683594 45.003907-82.273438 21.214844-106.066406-12.191406-12.191407-31.25-16.167969-52.277344-10.910157-18.625 4.65625-37.730469 16.066407-53.789062 32.125-16.066407 16.066407-27.46875 35-32.113281 53.3125-5.347657 21.089844-1.476563 39.519531 10.898437 51.898438 9.09375 9.09375 21.417969 13.464843 35.152344 13.464843zm7.273437-97.464843c24.394532-24.390625 53.652344-31.199219 63.640625-21.210938 10.015625 10.015625 3.070313 39.355469-21.210937 63.640625-24.039063 24.039063-53.425782 30.570313-63.640625 20.355469-9.832031-9.832031-3.539063-38.03125 21.210937-62.785156zm0 0"/><path d="m485.640625 87.324219c-5.859375-5.855469-15.355469-5.855469-21.214844 0-5.855469 5.859375-5.855469 15.355469 0 21.214843 11.332031 11.332032 17.574219 26.398438 17.574219 42.425782 0 33.914062-27.5 60-61 60-8.285156 0-15 6.714844-15 15s6.714844 15 15 15c50.878906 0 91-40.191406 91-90 0-24.039063-9.363281-46.640625-26.359375-63.640625zm0 0"/><path d="m449.417969 142.671875c3.703125-7.410156.699219-16.417969-6.707031-20.125-7.414063-3.703125-16.421876-.699219-20.125 6.710937-15.949219 31.894532-48.007813 51.707032-83.667969 51.707032h-22.917969c-8.285156 0-15 6.714844-15 15s6.714844 15 15 15h22.917969c22.960937 0 45.417969-6.378906 64.949219-18.453125 19.53125-12.070313 35.28125-29.300781 45.550781-49.839844zm0 0"/></svg>